<?xml version="1.0" encoding="UTF-8"?>
<svg baseProfile="tiny" height="424" version="1.2" viewBox="0 0 567 424" width="567" xmlns="http://www.w3.org/2000/svg">
  <text fill="black" font-family="Arial Unicode MS" font-size="20" font-weight="bold" x="194.90983072916669" y="30.58854166666663">
    Registrar Empleado  </text>
  <path d="M-378,-260.05208333333337 L-378,0" fill="none" stroke="black" stroke-width="1" transform="translate(413.5 353.5)"/>
  <rect fill="white" height="37" stroke="black" stroke-width="1" width="41" x="15.5" y="56.5"/>
  <text fill="black" font-family="Arial Unicode MS" font-size="13.333333333333334" x="26.35546875" y="78.9843749999999">
    RA  </text>
  <rect fill="white" height="37" stroke="black" stroke-width="1" width="41" x="15.5" y="353.5"/>
  <text fill="black" font-family="Arial Unicode MS" font-size="13.333333333333334" x="26.35546875" y="375.765625">
    RA  </text>
  <path d="M-162,-260.05208333333337 L-162,0" fill="none" stroke="black" stroke-width="1" transform="translate(413.5 353.5)"/>
  <rect fill="white" height="37" stroke="black" stroke-width="1" width="133" x="184.5" y="56.5"/>
  <text fill="black" font-family="Arial Unicode MS" font-size="13.333333333333334" x="196.01171875000003" y="78.9843749999999">
    Interfaz de usuario  </text>
  <rect fill="white" height="37" stroke="black" stroke-width="1" width="133" x="184.5" y="353.5"/>
  <text fill="black" font-family="Arial Unicode MS" font-size="13.333333333333334" x="196.01171875000003" y="375.765625">
    Interfaz de usuario  </text>
  <path d="M69,-260.05208333333337 L69,0" fill="none" stroke="black" stroke-width="1" transform="translate(413.5 353.5)"/>
  <rect fill="white" height="37" stroke="black" stroke-width="1" width="138" x="413.5" y="56.5"/>
  <text fill="black" font-family="Arial Unicode MS" font-size="13.333333333333334" x="424.60677083333337" y="78.9843749999999">
    Interfaz del sistema  </text>
  <rect fill="white" height="37" stroke="black" stroke-width="1" width="138" x="413.5" y="353.5"/>
  <text fill="black" font-family="Arial Unicode MS" font-size="13.333333333333334" x="424.60677083333337" y="375.765625">
    Interfaz del sistema  </text>
  <rect fill="white" height="15.333333333333343" width="93.38541666666669" x="96.73046875000006" y="106.78124999999994"/>
  <text fill="black" font-family="Arial Unicode MS" font-size="13.333333333333334" x="96.73046875000006" y="120.11458333333327">
    Ver  empleados  </text>
  <path d="M-377.38346354166663,-228 L-162.77018229166663,-228" fill="none" stroke="black" stroke-width="1" transform="translate(413.5 353.5)"/>
  <path d="M-163,-228 L-163,-228 L-171,-236 L-171,-228 L-171,-220 L-163,-228" fill="black" stroke="black" stroke-width="1" transform="translate(413.5 353.5)"/>
  <rect fill="white" height="15.333333333333343" width="203.07291666666674" x="265.283203125" y="138.97916666666663"/>
  <text fill="black" font-family="Arial Unicode MS" font-size="13.333333333333334" x="265.283203125" y="152.31249999999997">
    Conseguir lista con los empleados  </text>
  <path d="M-161.77018229166663,-196 L68.40950520833337,-196" fill="none" stroke="black" stroke-width="1" transform="translate(413.5 353.5)"/>
  <path d="M68,-196 L68,-196 L60,-204 L60,-196 L60,-188 L68,-196" fill="black" stroke="black" stroke-width="1" transform="translate(413.5 353.5)"/>
  <rect fill="white" height="15.333333333333343" width="0" x="366.81966145833337" y="171.17708333333331"/>
  <text fill="black" font-family="Arial Unicode MS" font-size="13.333333333333334" x="366.81966145833337" y="184.51041666666666"/>
  <path d="M-161.77018229166663,-174 L68.40950520833337,-174" fill="none" stroke="black" stroke-dasharray="5,3" stroke-width="1" transform="translate(413.5 353.5)"/>
  <path d="M-161,-174 L-161,-174 L-153,-182 L-153,-174 L-153,-166 L-161,-174" fill="black" stroke="black" stroke-width="1" transform="translate(413.5 353.5)"/>
  <rect fill="white" height="15.333333333333343" width="114.12109375" x="86.36263020833337" y="192.51041666666663"/>
  <text fill="black" font-family="Arial Unicode MS" font-size="13.333333333333334" x="86.36263020833337" y="205.84374999999997">
    Mostrar empleados  </text>
  <path d="M-377.38346354166663,-142 L-162.7701822916666,-142" fill="none" stroke="black" stroke-width="1" transform="translate(413.5 353.5)"/>
  <path d="M-377,-142 L-377,-142 L-369,-150 L-369,-142 L-369,-134 L-377,-142" fill="black" stroke="black" stroke-width="1" transform="translate(413.5 353.5)"/>
  <rect fill="white" height="15.333333333333314" width="100.80729166666669" x="93.01953125000006" y="224.70833333333331"/>
  <text fill="black" font-family="Arial Unicode MS" font-size="13.333333333333334" x="93.01953125000006" y="238.04166666666666">
    Añadir empleado  </text>
  <path d="M-377.38346354166663,-110 L-162.77018229166663,-110" fill="none" stroke="black" stroke-width="1" transform="translate(413.5 353.5)"/>
  <path d="M-163,-110 L-163,-110 L-171,-118 L-171,-110 L-171,-102 L-163,-110" fill="black" stroke="black" stroke-width="1" transform="translate(413.5 353.5)"/>
  <rect fill="white" height="15.333333333333314" width="160.09114583333334" x="63.377604166666686" y="256.90625"/>
  <text fill="black" font-family="Arial Unicode MS" font-size="13.333333333333334" x="63.377604166666686" y="270.2395833333333">
    Solicitar datos del emplado  </text>
  <path d="M-377.38346354166663,-78 L-162.77018229166663,-78" fill="none" stroke="black" stroke-width="1" transform="translate(413.5 353.5)"/>
  <path d="M-377,-78 L-377,-78 L-369,-86 L-369,-78 L-369,-70 L-377,-78" fill="black" stroke="black" stroke-width="1" transform="translate(413.5 353.5)"/>
  <rect fill="white" height="15.333333333333371" width="187.50651041666669" x="49.669921875" y="289.10416666666663"/>
  <text fill="black" font-family="Arial Unicode MS" font-size="13.333333333333334" x="49.669921875" y="302.43749999999994">
    Suministrar datos del empleado  </text>
  <path d="M-377.38346354166663,-46 L-162.77018229166663,-46" fill="none" stroke="black" stroke-width="1" transform="translate(413.5 353.5)"/>
  <path d="M-163,-46 L-163,-46 L-171,-54 L-171,-46 L-171,-38 L-163,-46" fill="black" stroke="black" stroke-width="1" transform="translate(413.5 353.5)"/>
  <rect fill="white" height="15.333333333333371" width="116.35416666666669" x="308.642578125" y="321.3020833333333"/>
  <text fill="black" font-family="Arial Unicode MS" font-size="13.333333333333334" x="308.642578125" y="334.63541666666663">
    Registrar empleado  </text>
  <path d="M-161.77018229166663,-13 L68.40950520833337,-13" fill="none" stroke="black" stroke-width="1" transform="translate(413.5 353.5)"/>
  <path d="M68,-13 L68,-13 L60,-21 L60,-13 L60,-5 L68,-13" fill="black" stroke="black" stroke-width="1" transform="translate(413.5 353.5)"/>
  <text fill="black" font-family="Arial" font-size="14" x="348.7115885416667" y="414.58854166666663">
    www.websequencediagrams.com  </text>
</svg>
